# xmcd CD database file
#
# Track frame offsets:
#	150
#	17042
#	36358
#	50132
#	68271
#	82808
#	99031
#	112757
#	127061
#	143563
#	159783
#	175511
#	188571
#	205578
#	220582
#	233458
#	252715
#	267691
#	282793
#	298723
#	311923
#	327975
#
# Disc length: 4588 seconds
#
# Revision: 3
# Processed by: cddbd v1.5.2PL0 Copyright (c) Steve Scherf et al.
# Submitted via: CDex 1.51
#
DISCID=2a11ea16
DTITLE=Alabama - For The Record Disc 2
DYEAR=1998
DGENRE=Country
TTITLE0=Touch Me When We're Dancing
TTITLE1=You've Got The Touch
TTITLE2=Face To Face
TTITLE3=Fallin' Again
TTITLE4=Song Of The South
TTITLE5=If I Had You
TTITLE6=High Cotton
TTITLE7=Southern Star
TTITLE8=Jukebox In My Mind
TTITLE9=Forever's As Far As I'll Go
TTITLE10=Down Home
TTITLE11=Here We Are
TTITLE12=Then Again
TTITLE13=Born Country
TTITLE14=I'm In A Hurry (And Don't Know
TTITLE15=Once Upon A Lifetime
TTITLE16=Hometown Honeymoon
TTITLE17=Reckless
TTITLE18=Give Me One More Shot
TTITLE19=She Ain't Your Ordinary Girl
TTITLE20=In Pictures
TTITLE21=Sad Lookin' Moon
EXTD=YEAR: 1998
EXTT0=
EXTT1=
EXTT2=
EXTT3=
EXTT4=
EXTT5=
EXTT6=
EXTT7=
EXTT8=
EXTT9=
EXTT10=
EXTT11=
EXTT12=
EXTT13=
EXTT14=
EXTT15=
EXTT16=
EXTT17=
EXTT18=
EXTT19=
EXTT20=
EXTT21=
PLAYORDER=
